# xmcd
#
# Track frame offsets:
#	150
#	29433
#	39299
#	59891
#	78004
#	111793
#	139064
#	150367
#	184354
#	195923
#	204399
#	219771
#	227261
#	246404
#
# Disc length: 3409 seconds
#
# Revision: 0
# Processed by: cddbd v1.5.2PL0 Copyright (c) Steve Scherf et al.
# Submitted via: EZCDAudioConverter 1.3.4.1
#
DISCID=b10d4f0e
DTITLE=Lula Côrtes E Zé Ramalho - Paêbirú
DYEAR=1900
DGENRE=
TTITLE0=Trilha De Sumé
TTITLE1=Culto À Terra
TTITLE2=Bailado Das Muscarias 
TTITLE3=Harpa Dos Ares
TTITLE4=Não Existe Molhado Igual Ao Pranto
TTITLE5=Omm
TTITLE6=Raga Dos Raios
TTITLE7=Nas Paredes Da Pedra Encantada
TTITLE8=Marácas De Fogo
TTITLE9=Louvação A Iemanjá
TTITLE10=Regato Da Montanha
TTITLE11=Beira Mar
TTITLE12=Pedra Templo Animal
TTITLE13=Trilha De Sumé
EXTD=
EXTT0=
EXTT1=
EXTT2=
EXTT3=
EXTT4=
EXTT5=
EXTT6=
EXTT7=
EXTT8=
EXTT9=
EXTT10=
EXTT11=
EXTT12=
EXTT13=
PLAYORDER=
